<svg xmlns="http://www.w3.org/2000/svg" width="100" height="100" viewBox="0 0 100 100">
  <!-- Body -->
  <path d="M30 50 Q50 30 70 50 Q90 70 70 90 Q50 100 30 90 Q10 70 30 50" fill="#8B0000"/>
  
  <!-- Head -->
  <path d="M20 45 Q10 35 20 25 Q30 20 40 25 L25 50" fill="#8B0000"/>
  
  <!-- Eye -->
  <circle cx="23" cy="30" r="3" fill="#FFFF00"/>
  
  <!-- Mouth -->
  <path d="M15 40 Q20 45 25 40" fill="none" stroke="#FFA500" stroke-width="2"/>
  
  <!-- Horns -->
  <path d="M15 25 L10 15 M25 20 L20 10" fill="none" stroke="#8B0000" stroke-width="3"/>
  
  <!-- Wings -->
  <path d="M50 40 Q70 20 90 40 Q70 50 50 40" fill="#A52A2A"/>
  <path d="M50 40 Q70 20 90 40" fill="none" stroke="#8B0000" stroke-width="2"/>
  
  <!-- Tail -->
  <path d="M30 90 Q0 70 10 50" fill="none" stroke="#8B0000" stroke-width="5"/>
  
  <!-- Legs -->
  <path d="M35 85 L30 100 M65 85 L70 100" stroke="#8B0000" stroke-width="4"/>
  
  <!-- Spikes -->
  <path d="M40 30 L45 20 L50 30 L55 20 L60 30 L65 20" fill="none" stroke="#FFA500" stroke-width="2"/>
</svg>