<svg xmlns="http://www.w3.org/2000/svg" width="800" height="600" viewBox="0 0 800 600">
  <!-- Background -->
  <rect width="100%" height="100%" fill="#C2B280"/>
  
  <!-- Forest areas -->
  <path d="M0 0 Q400 50 800 0 Q750 300 800 600 Q400 550 0 600 Q50 300 0 0" fill="#228B22"/>
  
  <!-- Mountains -->
  <path d="M600 100 L650 50 L700 100 L650 80 Z" fill="#A0522D"/>
  <path d="M100 500 L150 450 L200 500 L150 480 Z" fill="#A0522D"/>
  
  <!-- Squiggly River -->
  <path d="M0 300 Q200 100 400 300 Q600 500 800 300" fill="none" stroke="#4169E1" stroke-width="20"/>  

  <!-- Trees -->
  <g id="tree">
    <circle cx="0" cy="0" r="10" fill="#006400"/>
    <polygon points="-8,-10 8,-10 0,-25" fill="#006400"/>
  </g>
  <use href="#tree" x="200" y="150"/>
  <use href="#tree" x="300" y="250"/>
  <use href="#tree" x="500" y="350"/>
  <use href="#tree" x="600" y="200"/>
  <use href="#tree" y="200" x="150"/>
  <use href="#tree" y="300" x="250"/>
  <use href="#tree" y="500" x="350"/>
  <use href="#tree" y="600" x="200"/>
  
  <!-- Compass rose -->
  <g transform="translate(700, 100) scale(0.5)">
    <circle cx="0" cy="0" r="30" fill="#F0E68C" stroke="#000" stroke-width="2"/>
    <path d="M0 -25 L10 25 L0 15 L-10 25 Z" fill="#8B0000"/>
  </g>
</svg>