<svg xmlns="http://www.w3.org/2000/svg" width="100" height="100" viewBox="0 0 100 100">
  <!-- Body -->
  <ellipse cx="50" cy="60" rx="30" ry="35" fill="#ECEFF1"/>
  
  <!-- Head -->
  <circle cx="50" cy="30" r="20" fill="#ECEFF1"/>
  
  <!-- Eyes -->
  <circle cx="42" cy="25" r="4" fill="#000000"/>
  <circle cx="58" cy="25" r="4" fill="#000000"/>
  
  <!-- Nose -->
  <circle cx="50" cy="32" r="3" fill="#000000"/>
  
  <!-- Mouth -->
  <path d="M45 38 Q50 42 55 38" fill="none" stroke="#000000" stroke-width="2"/>
  
  <!-- Arms -->
  <path d="M20 50 Q15 70 25 90" fill="none" stroke="#ECEFF1" stroke-width="10"/>
  <path d="M80 50 Q85 70 75 90" fill="none" stroke="#ECEFF1" stroke-width="10"/>
  
  <!-- Legs -->
  <rect x="35" y="90" width="10" height="10" fill="#ECEFF1"/>
  <rect x="55" y="90" width="10" height="10" fill="#ECEFF1"/>
  
  <!-- Fur Details -->
  <path d="M30 10 L35 20 M45 5 L47 15 M55 5 L53 15 M70 10 L65 20" fill="none" stroke="#ECEFF1" stroke-width="2"/>
</svg>